<svg width="51" height="76" viewBox="0 0 51 76" fill="none" xmlns="http://www.w3.org/2000/svg">
<path d="M29.5578 0.821565C29.5578 0.821565 22.765 0.0607837 22.3845 5.49453C22.3845 5.49453 27.9275 9.95016 29.5578 0.821565Z" fill="#52AFA6"/>
<path d="M28.5235 2.36973C28.4782 2.28035 28.3689 2.24473 28.2802 2.29066L24.8766 4.02316C25.1702 3.5491 25.8218 2.70019 26.4358 1.97035C26.5 1.89379 26.4902 1.77957 26.4138 1.71535C26.3375 1.65066 26.2232 1.66129 26.1589 1.73723C25.378 2.66598 24.4733 3.81738 24.3668 4.28269L22.3025 5.33348C22.2135 5.37863 22.1782 5.48738 22.2235 5.57645C22.2555 5.63926 22.3189 5.67535 22.3849 5.67535C22.4124 5.67535 22.4405 5.66894 22.4668 5.65551L24.5518 4.5941C24.863 4.68473 25.7432 4.70754 26.5293 4.70754C26.923 4.70754 27.2918 4.70223 27.5507 4.69691C27.6507 4.69473 27.7299 4.61223 27.728 4.51254C27.7261 4.41301 27.6341 4.3352 27.5436 4.3352C26.6447 4.35301 25.6708 4.34582 25.1079 4.31082L28.4444 2.61238C28.5335 2.56754 28.5688 2.45879 28.5235 2.36973Z" fill="#241726"/>
<path d="M29.8488 39.1402C27.6585 39.5202 33.2239 51.6716 40.2163 49.984C47.2088 48.2963 47.2088 42.7512 46.4853 42.0279C45.7621 41.3046 41.5457 39.4304 39.8578 38.7071C38.17 37.9838 50.6502 29.9701 44.7975 18.8829C40.7697 11.2526 31.9956 5.68648 12.0053 14.061C1.58784 18.4252 -2.71185 26.012 2.19065 29.9977C3.62128 31.1609 5.88956 31.2504 8.38128 31.5962C4.92315 34.6059 3.06299 39.1657 4.75987 43.8346C1.25049 47.0193 0.208931 51.5246 4.66221 56.9401C5.61159 58.0946 6.65018 58.9607 7.73862 59.5905L7.73643 59.5921C1.59518 68.7216 14.5046 69.8444 21.8763 67.3268C21.8814 67.413 21.8857 67.4962 21.8911 67.584C22.5652 78.2769 36.4897 76.3482 40.1066 68.8743C43.7233 61.4004 35.3938 60.8334 35.3938 60.8334C35.3938 60.8334 41.5533 67.8496 30.8125 69.5127C27.4671 70.0309 26.4253 67.5235 26.1594 65.1891C31.3096 62.1873 33.8871 59.8312 31.536 55.7704C29.0778 51.5249 27.8631 52.4562 27.6983 52.6152C27.9036 52.4029 30.1117 50.0452 30.5714 46.3676C31.0536 42.5101 24.7008 41.8734 24.7008 41.8734C24.7008 41.8734 32.6852 35.0565 31.0538 30.4554C28.4124 23.006 11.4111 29.0773 11.4111 29.0773C13.0386 25.039 34.6705 19.3649 37.805 23.9459C40.9396 28.5266 34.6583 38.0573 34.6583 38.0573C34.6583 38.0573 32.2814 38.7182 29.8488 39.1402Z" fill="#7D9328"/>
<path d="M35.6536 44.6846C35.6278 44.6846 35.602 44.6821 35.5762 44.6776C34.8795 44.5554 34.7642 42.6734 34.7455 42.0995C34.7422 41.9995 34.8203 41.9162 34.9201 41.9126C35.0181 41.9129 35.1034 41.9874 35.1069 42.0874C35.1405 43.106 35.3672 44.2739 35.6389 44.3215C35.6741 44.3271 36.0266 44.3318 36.7436 42.5395C36.7805 42.4467 36.8869 42.4017 36.9786 42.4388C37.0712 42.4759 37.1166 42.5812 37.0794 42.6737C36.5264 44.0559 36.0825 44.6846 35.6536 44.6846Z" fill="#241726"/>
<path d="M42.9753 45.3738C42.6885 45.3738 42.3111 44.9672 41.5579 43.3769C41.5149 43.2869 41.5535 43.1788 41.6438 43.136C41.7338 43.0939 41.8418 43.1317 41.8844 43.2222C42.5788 44.6872 42.8788 44.9531 42.9627 45.0011C43.0785 44.8008 43.0455 43.8088 42.8857 42.808C42.8699 42.7094 42.9371 42.6166 43.0357 42.6006C43.1366 42.5861 43.2272 42.6522 43.2428 42.7508C43.4203 43.8616 43.5346 45.2152 43.0714 45.3589C43.0403 45.3684 43.0083 45.3738 42.9753 45.3738Z" fill="#241726"/>
<path d="M29.9788 42.4331C29.9788 42.4331 33.8944 47.0336 35.7514 47.0911C37.6084 47.1484 39.24 44.4662 40.0234 44.6726C40.8069 44.879 42.3544 47.0453 43.5925 46.5295C44.8306 46.0137 46.7472 43.6029 46.7472 43.6029C46.7472 43.6029 46.6683 50.1401 40.0234 51.5844C33.3786 53.0286 29.9788 42.4331 29.9788 42.4331Z" fill="#E8A900"/>
<path d="M39.5687 47.6187C39.568 47.6187 39.5672 47.6187 39.5664 47.6187C39.4664 47.6173 39.3866 47.5354 39.3878 47.4354C39.3952 46.8551 39.2792 46.1799 39.0948 46.0993C39.0397 46.0757 38.9341 46.1307 38.8125 46.2467C38.7403 46.3153 38.6259 46.3128 38.5567 46.2403C38.4878 46.1679 38.4906 46.0534 38.5631 45.9846C38.8077 45.7515 39.035 45.6784 39.2397 45.7681C39.7306 45.9821 39.7539 47.102 39.7495 47.4403C39.7483 47.5392 39.6675 47.6187 39.5687 47.6187Z" fill="#241726"/>
<path d="M40.3942 47.6185C40.295 47.6185 40.214 47.5384 40.2134 47.4388C40.2056 46.3045 40.3604 45.7168 40.7004 45.5907C40.9875 45.4834 41.2261 45.7507 41.2522 45.7818C41.3169 45.858 41.3076 45.9721 41.2315 46.0368C41.1564 46.1015 41.0422 46.0926 40.9775 46.017C40.9394 45.9735 40.8597 45.9149 40.8264 45.9298C40.8158 45.9337 40.5658 46.0446 40.5753 47.4368C40.5761 47.5363 40.4956 47.6181 40.3958 47.6187C40.3951 47.6185 40.3945 47.6185 40.3942 47.6185Z" fill="#241726"/>
<path d="M40.1613 48.1519C40.1613 48.1519 41.1145 51.7478 43.268 52.2169C47.4511 53.1279 47.9733 48.25 47.9733 48.25C47.9733 48.25 49.6341 48.7075 48.0864 51.3897C48.0864 51.3897 49.6069 50.4851 50.0331 49.7847C50.0331 49.7847 51.2627 52.0726 46.2336 53.5467C40.128 55.3362 38.9231 48.6459 40.1613 48.1519Z" fill="#DF4F3E"/>
<path d="M38.5997 26.6829C38.5997 26.6829 41.4713 19.4199 27.6782 20.0527C13.885 20.6856 11.1122 26.502 10.0272 30.0582C10.0272 30.0582 13.8757 26.1999 26.8961 24.452C35.7196 23.2674 38.5997 26.6829 38.5997 26.6829Z" fill="#E8A900"/>
<path d="M5.80774 44.6441C5.80774 44.6441 25.7302 41.7208 29.799 36.0249C29.799 36.0249 25.3268 42.3572 19.1295 45.3071C12.9321 48.2569 5.80774 44.6441 5.80774 44.6441Z" fill="#E8A900"/>
<path d="M4.30066 56.2773C4.30066 56.2773 10.4207 56.9118 16.8991 55.6745C27.6289 53.6251 29.4975 49.7676 29.4975 49.7676C29.4975 49.7676 28.7139 52.6607 26.3027 53.8059C23.8914 54.951 18.9938 59.1551 9.06269 60.0743C9.06269 60.0746 6.47066 59.954 4.30066 56.2773Z" fill="#E8A900"/>
<path d="M22.3242 69.7786C22.3242 69.7786 24.4053 74.0539 31.5183 73.5717C38.6312 73.0895 40.7095 64.2937 39.8655 62.7266C39.8655 62.7266 45.4714 68.1512 35.1034 74.1183C24.6364 80.1423 22.3242 69.7786 22.3242 69.7786Z" fill="#E8A900"/>
<path d="M20.0335 68.0905C19.9539 68.0905 19.8813 68.0379 19.8591 67.9574C19.8328 67.861 19.8894 67.7618 19.986 67.7352C20.0427 67.7198 25.6921 66.1519 28.0403 63.6865C28.1097 63.6137 28.2239 63.6119 28.2961 63.6801C28.3685 63.749 28.3713 63.8633 28.3025 63.9357C25.8844 66.4746 20.3174 68.0193 20.0814 68.084C20.0653 68.0883 20.0494 68.0905 20.0335 68.0905Z" fill="#241726"/>
<path d="M36.5283 25.3595C36.5047 25.3595 36.4808 25.355 36.4577 25.345C36.3658 25.3061 36.3228 25.2001 36.3618 25.108L37.5893 22.212C37.6283 22.1198 37.7347 22.0767 37.8264 22.1162C37.9183 22.1551 37.9611 22.2611 37.9224 22.3533L36.6949 25.2492C36.6655 25.3183 36.5986 25.3595 36.5283 25.3595Z" fill="#241726"/>
<path d="M34.2264 24.6322C34.2111 24.6322 34.1955 24.6305 34.1802 24.6263C34.0836 24.6008 34.026 24.5019 34.0514 24.4052L34.9889 20.8499C35.0146 20.7535 35.1149 20.696 35.2099 20.7213C35.3064 20.7468 35.3641 20.8457 35.3386 20.9424L34.4011 24.4977C34.3797 24.5786 34.3064 24.6322 34.2264 24.6322Z" fill="#241726"/>
<path d="M31.8032 24.3296C31.7884 24.3296 31.7735 24.3279 31.7585 24.324C31.6618 24.2996 31.603 24.201 31.6279 24.1043L32.5973 20.288C32.6216 20.1908 32.7204 20.1316 32.8169 20.1574C32.9137 20.1818 32.9724 20.2804 32.9476 20.3771L31.9782 24.1933C31.9576 24.2752 31.884 24.3296 31.8032 24.3296Z" fill="#241726"/>
<path d="M29.259 24.3902C29.2519 24.3902 29.2449 24.3899 29.2376 24.3888C29.1385 24.3771 29.0676 24.2874 29.0791 24.1882L29.5636 20.0693C29.5754 19.9703 29.6635 19.8966 29.7644 19.911C29.8635 19.9227 29.9344 20.0124 29.9229 20.1116L29.4383 24.2305C29.4276 24.3224 29.3493 24.3902 29.259 24.3902Z" fill="#241726"/>
<path d="M26.593 24.7538C26.4996 24.7538 26.4205 24.6821 26.4128 24.5874L26.0494 20.0443C26.0414 19.9447 26.1158 19.8574 26.2152 19.8497C26.316 19.8416 26.4021 19.9158 26.41 20.0154L26.7735 24.5585C26.7814 24.658 26.7071 24.7454 26.6077 24.753C26.6027 24.7535 26.5977 24.7538 26.593 24.7538Z" fill="#241726"/>
<path d="M23.8061 24.9965C23.7233 24.9965 23.6486 24.9393 23.6298 24.8552L22.7212 20.7966C22.6994 20.6991 22.7606 20.6024 22.8581 20.5806C22.9573 20.5604 23.0525 20.6204 23.074 20.7176L23.9826 24.7762C24.0045 24.8737 23.9433 24.9704 23.8458 24.9923C23.8325 24.9949 23.8192 24.9965 23.8061 24.9965Z" fill="#241726"/>
<path d="M22.1402 25.1819C21.8166 25.2374 21.4999 25.297 21.188 25.3594C21.2014 25.3213 21.2047 25.2791 21.1897 25.2381L19.7358 21.2403C19.7019 21.1464 19.5988 21.0977 19.5041 21.1322C19.4103 21.1661 19.3618 21.27 19.396 21.3639L20.8499 25.3617C20.8589 25.3867 20.8782 25.4031 20.8957 25.4209C20.0402 25.5994 19.2299 25.8016 18.4638 26.0222L16.6996 22.4439C16.6553 22.3542 16.5472 22.3175 16.4574 22.3616C16.3678 22.4058 16.331 22.5141 16.3752 22.6034L18.111 26.1244C17.3463 26.3539 16.6268 26.6005 15.9528 26.858L14.1091 23.8439C14.0568 23.7588 13.9453 23.7319 13.8605 23.7839C13.7752 23.8363 13.7483 23.9474 13.8005 24.0325L15.6114 26.9927C14.8596 27.2908 14.1635 27.6005 13.5278 27.9131C13.5275 27.9128 13.5275 27.9124 13.5272 27.9119L12.0968 26.147C12.0341 26.0697 11.92 26.057 11.8422 26.1202C11.7647 26.183 11.7527 26.297 11.8155 26.3744L13.1975 28.0794C9.76019 29.8291 8.1116 31.5944 8.08519 31.6234C8.01785 31.6972 8.02316 31.8117 8.09707 31.8788C8.13175 31.9105 8.17535 31.9261 8.21894 31.9261C8.268 31.9261 8.31691 31.9063 8.35269 31.8672C8.38457 31.8322 10.8028 29.2402 15.9425 27.2484C15.9532 27.2445 15.9646 27.2456 15.9744 27.2395C15.9772 27.2378 15.9786 27.235 15.9813 27.2331C17.735 26.5564 19.803 25.9499 22.2013 25.5386C22.2999 25.5217 22.3658 25.4281 22.3489 25.3295C22.3321 25.2314 22.2393 25.1647 22.1402 25.1819Z" fill="#241726"/>
<path d="M30.6731 34.8867C30.5906 34.8315 30.4781 34.8524 30.422 34.9351C28.9609 37.089 27.4345 38.9345 25.8506 40.4824L24.9212 39.5531C24.8506 39.4824 24.7362 39.4824 24.6654 39.5531C24.5948 39.6237 24.5948 39.7381 24.6654 39.8087L25.5906 40.7339C24.7365 41.5473 23.8656 42.2718 22.9787 42.9085L21.909 40.5914C21.8672 40.5009 21.7597 40.4614 21.669 40.5031C21.5782 40.5451 21.5387 40.6524 21.5806 40.7432L22.6567 43.0742C22.6648 43.0918 22.6804 43.1018 22.6929 43.1154C21.8856 43.6756 21.0643 44.1582 20.2312 44.5721L18.8615 41.4907C18.8211 41.3996 18.7145 41.359 18.6228 41.3989C18.5315 41.4395 18.4904 41.5465 18.5309 41.6376L19.907 44.7332C18.9322 45.1935 17.9404 45.5553 16.9326 45.8151L15.9106 42.4085C15.882 42.3128 15.7808 42.2574 15.6854 42.2874C15.5897 42.316 15.5354 42.4167 15.5642 42.5124L16.5801 45.8989C16.3314 45.957 16.0828 46.0151 15.8322 46.061C14.9473 46.2235 14.0956 46.2973 13.2825 46.3082L12.8522 43.3828C12.8375 43.2842 12.7461 43.2189 12.647 43.2303C12.5481 43.2451 12.48 43.337 12.4943 43.4357L12.9172 46.3099C11.7954 46.2984 10.7558 46.1646 9.81903 45.9663C9.81919 45.9631 9.82091 45.9604 9.82091 45.9571V44.0745C9.82091 43.9745 9.73997 43.8937 9.64013 43.8937C9.54012 43.8937 9.45934 43.9746 9.45934 44.0745V45.8865C6.59888 45.2131 4.79544 43.9743 4.76653 43.954C4.68497 43.8965 4.57169 43.9165 4.51466 43.9982C4.45731 44.0798 4.477 44.1924 4.55856 44.2501C4.59934 44.2787 8.07528 46.6735 13.0797 46.6735C13.9715 46.6735 14.9126 46.5973 15.8906 46.4182C16.194 46.3626 16.4956 46.2953 16.7962 46.2223C16.8023 46.2229 16.8072 46.2279 16.8134 46.2279C16.8306 46.2279 16.8481 46.2254 16.8653 46.2201C16.8806 46.2156 16.8928 46.2065 16.9059 46.1985C20.0753 45.406 23.084 43.6379 25.9073 40.9309C25.9403 40.9239 25.972 40.9107 25.9976 40.8853C26.0217 40.8612 26.0345 40.8315 26.0422 40.8007C27.6656 39.2234 29.2283 37.3398 30.7215 35.1382C30.7773 35.0551 30.7558 34.9429 30.6731 34.8867Z" fill="#241726"/>
<path d="M27.8209 52.5251C27.7598 52.4464 27.6462 52.4315 27.5672 52.4934C27.5376 52.5164 26.5607 53.2642 24.9356 54.2731L24.135 53.1165C24.0779 53.0342 23.9654 53.0131 23.8833 53.0706C23.8011 53.1275 23.7806 53.2401 23.8375 53.322L24.6273 54.4631C23.7765 54.9818 22.7687 55.5584 21.6384 56.1364L21.2004 54.4715C21.175 54.3748 21.0768 54.3168 20.9795 54.3426C20.8831 54.3681 20.8253 54.467 20.8507 54.5634L21.299 56.2671C21.3023 56.2795 21.3134 56.2859 21.3187 56.2968C20.3936 56.7604 19.3934 57.2201 18.3347 57.6485C18.3395 57.6246 18.3401 57.5996 18.3347 57.5742L17.8862 55.512C17.8648 55.4148 17.7687 55.3528 17.6709 55.3739C17.5734 55.3951 17.5114 55.491 17.5326 55.5889L17.9811 57.651C17.9915 57.6985 18.0207 57.736 18.0582 57.7612C16.9379 58.2042 15.755 58.6062 14.5334 58.9381L13.9408 56.2292C13.9195 56.1314 13.8239 56.0692 13.7254 56.091C13.6279 56.1123 13.5662 56.2087 13.5875 56.306L14.1836 59.0307C13.4459 59.2215 12.6953 59.384 11.9351 59.5126L11.0693 56.31C11.0433 56.2135 10.9436 56.1575 10.8475 56.1828C10.7511 56.2089 10.694 56.3081 10.72 56.4045L11.5759 59.5706C10.8147 59.6879 10.0458 59.7687 9.27278 59.8071C9.27044 59.7987 9.27091 59.7901 9.26747 59.7818L7.83309 56.4646C7.79356 56.3725 7.68669 56.3293 7.59544 56.3704C7.50356 56.41 7.46153 56.5167 7.50106 56.6081L8.89137 59.8229C8.80653 59.8256 8.72216 59.8317 8.63731 59.8332C8.53747 59.835 8.45809 59.9176 8.45981 60.0173C8.46169 60.1162 8.54231 60.195 8.64059 60.195C8.64169 60.195 8.64294 60.195 8.64387 60.195C18.3568 60.0153 27.6956 52.8512 27.7887 52.7789C27.8679 52.7176 27.8822 52.6039 27.8209 52.5251Z" fill="#241726"/>
<path d="M25.0624 74.9177C25.0416 74.9177 25.0204 74.9141 24.9996 74.9065C24.906 74.8719 24.8582 74.7677 24.8929 74.6741L25.7896 72.2535C25.8243 72.1602 25.9276 72.1115 26.022 72.1468C26.1156 72.1813 26.1634 72.2855 26.1287 72.3791L25.232 74.7997C25.2049 74.8726 25.1359 74.9177 25.0624 74.9177Z" fill="#241726"/>
<path d="M28.4698 75.9043C28.4603 75.9043 28.4508 75.9035 28.4411 75.9021C28.3425 75.8862 28.2755 75.7933 28.2911 75.6947L28.6498 73.4532C28.6656 73.3546 28.7583 73.2896 28.857 73.303C28.9556 73.319 29.0226 73.4118 29.007 73.5104L28.6483 75.7519C28.634 75.841 28.5572 75.9043 28.4698 75.9043Z" fill="#241726"/>
<path d="M31.0703 75.9938C31.0655 75.9938 31.0606 75.9935 31.0556 75.993C30.9563 75.9852 30.8819 75.898 30.8899 75.7985L31.0691 73.5569C31.0771 73.4574 31.1641 73.3828 31.2639 73.3913C31.3633 73.3991 31.4377 73.4863 31.4297 73.5858L31.2505 75.8274C31.2428 75.9221 31.1638 75.9938 31.0703 75.9938Z" fill="#241726"/>
<path d="M34.6567 74.4696C34.608 74.4696 34.5594 74.4502 34.5239 74.4113L33.4478 73.2458C33.38 73.1727 33.3845 73.0583 33.4578 72.9905C33.5311 72.9227 33.6458 72.9269 33.7133 73.0008L34.7894 74.1663C34.8572 74.2394 34.8527 74.3538 34.7794 74.4216C34.7446 74.4536 34.7006 74.4696 34.6567 74.4696Z" fill="#241726"/>
<path d="M37.8846 72.3178C37.8461 72.3178 37.8074 72.3054 37.7746 72.2802L36.6088 71.3838C36.5296 71.3231 36.5149 71.2093 36.5757 71.1303C36.6365 71.0507 36.7502 71.0363 36.8293 71.0971L37.995 71.9935C38.0743 72.0543 38.0889 72.1681 38.0282 72.2471C37.9925 72.2934 37.9388 72.3178 37.8846 72.3178Z" fill="#241726"/>
<path d="M40.1261 70.2555C40.091 70.2555 40.0555 70.2452 40.0243 70.2241L38.3207 69.0587C38.2382 69.0021 38.2172 68.8894 38.2735 68.8072C38.3296 68.7249 38.4421 68.7038 38.5247 68.7599L40.2283 69.9254C40.3108 69.9819 40.3318 70.0946 40.2755 70.1768C40.2407 70.228 40.184 70.2555 40.1261 70.2555Z" fill="#241726"/>
<path d="M41.3815 67.2074C41.3555 67.2074 41.3291 67.2018 41.3043 67.1901L39.6007 66.383C39.5104 66.3404 39.4718 66.2323 39.5148 66.1421C39.5576 66.0521 39.6662 66.0143 39.7555 66.056L41.4591 66.863C41.5494 66.9057 41.588 67.0138 41.5451 67.104C41.5141 67.1693 41.4493 67.2074 41.3815 67.2074Z" fill="#241726"/>
<path d="M36.7611 49.8536C36.4158 49.8536 36.0436 49.7981 35.642 49.6667C32.9192 48.7739 32.6683 46.6991 32.6589 46.6111C32.6483 46.5122 32.72 46.4233 32.819 46.4127C32.9193 46.402 33.0073 46.4735 33.0184 46.5724C33.0273 46.6511 33.2633 48.5063 35.7547 49.3228C37.3143 49.8339 38.3728 49.0717 39.1456 48.5152C39.6359 48.1613 40.0593 47.8555 40.3804 48.2022C40.7008 48.5469 41.6778 49.5975 42.6376 49.4464C43.2025 49.3588 43.6992 48.8683 44.1142 47.9881C44.1565 47.8974 44.2645 47.8592 44.355 47.9016C44.4453 47.9439 44.4839 48.052 44.4414 48.142C43.9722 49.1377 43.3839 49.6967 42.6934 49.8038C41.5408 49.9817 40.4683 48.8277 40.1158 48.448C40.0189 48.3438 39.7647 48.515 39.3575 48.8081C38.7509 49.2452 37.9065 49.8536 36.7611 49.8536Z" fill="#241726"/>
<path d="M33.5554 13.1426C33.4948 13.1426 33.4356 13.1123 33.4014 13.0568C33.207 12.7418 32.9739 12.5575 32.7084 12.509C32.272 12.4285 31.8723 12.734 31.8686 12.7368C31.7898 12.7979 31.6762 12.7839 31.615 12.7046C31.5539 12.6262 31.5678 12.5129 31.6462 12.4518C31.6676 12.4353 32.1736 12.0443 32.7698 12.1528C33.1418 12.2192 33.4578 12.4596 33.7092 12.8668C33.7617 12.952 33.7353 13.0632 33.6504 13.1157C33.6206 13.1339 33.5878 13.1426 33.5554 13.1426Z" fill="#241726"/>
<path d="M35.0019 14.5732C34.9413 14.5732 34.882 14.5429 34.8478 14.4874C34.6531 14.1724 34.4202 13.9881 34.1547 13.9396C33.7184 13.8598 33.3186 14.1646 33.3149 14.1674C33.2359 14.2282 33.1224 14.214 33.0613 14.1352C33.0002 14.0568 33.0141 13.9435 33.0925 13.8824C33.1138 13.8659 33.6203 13.4781 34.2161 13.5829C34.5881 13.6496 34.9044 13.8901 35.1556 14.2974C35.2081 14.3826 35.1817 14.4938 35.0969 14.5463C35.067 14.5645 35.0342 14.5732 35.0019 14.5732Z" fill="#241726"/>
<path d="M36.1505 13.0188C36.0897 13.0188 36.0306 12.9885 35.9963 12.933C35.8013 12.6166 35.5674 12.4322 35.3008 12.3846C34.8633 12.3044 34.468 12.6096 34.4641 12.6124C34.3849 12.6743 34.2713 12.6597 34.2102 12.5813C34.1488 12.5026 34.1627 12.3891 34.2413 12.3277C34.2627 12.3112 34.7703 11.9205 35.3646 12.0287C35.7366 12.0954 36.0528 12.3355 36.3042 12.7432C36.3566 12.8283 36.3302 12.9396 36.2452 12.9921C36.2156 13.0099 36.1828 13.0188 36.1505 13.0188Z" fill="#241726"/>
<path d="M37.5793 14.5942C37.5187 14.5942 37.4594 14.5639 37.4252 14.5084C37.2305 14.1934 36.9976 14.009 36.7321 13.9606C36.2951 13.8797 35.896 14.1856 35.8922 14.1884C35.8135 14.2495 35.6999 14.2355 35.6386 14.1562C35.5776 14.0778 35.5915 13.9645 35.6699 13.9034C35.6913 13.8869 36.1969 13.499 36.7935 13.6039C37.1655 13.6706 37.4818 13.9111 37.733 14.3184C37.7855 14.4036 37.7591 14.5148 37.6743 14.5673C37.6444 14.5853 37.6116 14.5942 37.5793 14.5942Z" fill="#241726"/>
<path d="M38.8835 13.5748C38.8227 13.5748 38.7637 13.5444 38.7293 13.489C38.5343 13.1729 38.3004 12.9882 38.034 12.9405C37.5945 12.8621 37.2009 13.1659 37.1971 13.1687C37.1181 13.2305 37.0043 13.2166 36.9432 13.1376C36.8818 13.0591 36.8957 12.9454 36.9743 12.884C36.9957 12.8674 37.5015 12.4793 38.0979 12.5844C38.4699 12.6512 38.7859 12.8913 39.0374 13.299C39.0898 13.3841 39.0634 13.4954 38.9784 13.5479C38.9487 13.5659 38.9159 13.5748 38.8835 13.5748Z" fill="#241726"/>
<path d="M32.0971 14.217C32.0365 14.217 31.9773 14.1867 31.943 14.1312C31.7483 13.8162 31.5154 13.6318 31.2499 13.5834C30.8135 13.5032 30.4138 13.8084 30.4101 13.8112C30.3313 13.872 30.2176 13.8578 30.1565 13.779C30.0954 13.7006 30.1093 13.5873 30.1877 13.5262C30.2091 13.5093 30.7149 13.1211 31.3113 13.2267C31.6833 13.2934 31.9996 13.5339 32.2508 13.9412C32.3033 14.0264 32.2769 14.1376 32.1921 14.1901C32.1623 14.2081 32.1294 14.217 32.0971 14.217Z" fill="#241726"/>
<path d="M3.28889 23.0867C3.28233 23.0867 3.27561 23.0863 3.26889 23.0856C3.16967 23.0746 3.09795 22.9852 3.10889 22.886C3.11186 22.8592 3.18702 22.2246 3.67952 21.8727C3.98639 21.6531 4.37889 21.5948 4.84702 21.6993C4.94452 21.7212 5.00577 21.8179 4.98389 21.9154C4.96202 22.0129 4.86623 22.0737 4.76795 22.0524C4.40608 21.9712 4.11014 22.0093 3.88967 22.1673C3.52733 22.4259 3.46905 22.9206 3.46842 22.9256C3.45826 23.0182 3.37999 23.0867 3.28889 23.0867Z" fill="#241726"/>
<path d="M5.32283 23.0501C5.31611 23.0501 5.30924 23.0498 5.30236 23.049C5.2033 23.0378 5.13189 22.9487 5.14283 22.8498C5.1458 22.8229 5.22095 22.1887 5.7133 21.837C6.0208 21.6173 6.41392 21.5584 6.88096 21.6632C6.97846 21.6851 7.0397 21.7818 7.01783 21.8793C6.99627 21.9768 6.9008 22.0379 6.80189 22.0164C6.44002 21.9351 6.14549 21.9732 5.92564 22.1298C5.56502 22.3859 5.50299 22.8848 5.50236 22.8901C5.49158 22.982 5.41346 23.0501 5.32283 23.0501Z" fill="#241726"/>
<path d="M5.01253 21.1422C5.00581 21.1422 4.99893 21.1419 4.99206 21.1411C4.893 21.1298 4.82159 21.0408 4.83253 20.9419C4.8355 20.915 4.91065 20.2808 5.40284 19.929C5.71065 19.7094 6.10362 19.6519 6.5705 19.7556C6.668 19.7775 6.72924 19.8742 6.70737 19.9717C6.68549 20.0692 6.58971 20.1303 6.49143 20.1087C6.12924 20.0278 5.83503 20.0656 5.61534 20.2217C5.25471 20.4778 5.19268 20.9767 5.19221 20.982C5.18128 21.074 5.10315 21.1422 5.01253 21.1422Z" fill="#241726"/>
<path d="M7.13777 21.2208C7.13121 21.2208 7.12449 21.2205 7.11777 21.2197C7.01855 21.2088 6.94683 21.1194 6.95777 21.0202C6.96074 20.9933 7.03589 20.3591 7.52808 20.0074C7.83558 19.7877 8.22824 19.7288 8.69574 19.8336C8.79324 19.8555 8.85449 19.9522 8.83261 20.0497C8.81105 20.1472 8.71605 20.2083 8.61667 20.1868C8.25417 20.1055 7.9587 20.1444 7.73839 20.3016C7.3762 20.5605 7.31792 21.0549 7.3173 21.0599C7.30714 21.1524 7.22902 21.2208 7.13777 21.2208Z" fill="#241726"/>
<path d="M7.31905 19.5749C7.31233 19.5749 7.30545 19.5746 7.29858 19.5738C7.19951 19.5625 7.12811 19.4735 7.13905 19.3746C7.14201 19.3477 7.21717 18.7135 7.70951 18.3618C8.01701 18.1421 8.40967 18.0835 8.87701 18.188C8.97451 18.2099 9.03577 18.3066 9.01389 18.4041C8.99233 18.5016 8.89764 18.5627 8.79795 18.5411C8.43623 18.4599 8.14201 18.4985 7.92186 18.6546C7.56123 18.9107 7.4992 19.4096 7.49858 19.4149C7.48779 19.5067 7.40967 19.5749 7.31905 19.5749Z" fill="#241726"/>
<path d="M3.03938 24.8803C3.03282 24.8803 3.0261 24.88 3.01938 24.8792C2.92016 24.8682 2.84844 24.7789 2.85938 24.6796C2.86235 24.6528 2.9375 24.0185 3.42985 23.6668C3.73766 23.4471 4.13047 23.3896 4.59735 23.4934C4.69485 23.5153 4.7561 23.612 4.73422 23.7095C4.7125 23.807 4.6175 23.8684 4.51829 23.8465C4.15579 23.7653 3.86047 23.8042 3.64016 23.9609C3.27781 24.2198 3.21953 24.7142 3.21891 24.7192C3.20875 24.8118 3.13047 24.8803 3.03938 24.8803Z" fill="#241726"/>
<path d="M19.2717 29.2471C19.2339 29.2471 19.1958 29.2354 19.1633 29.2107C19.0836 29.1507 19.0674 29.0381 19.127 28.9582C19.1433 28.9367 19.5302 28.4285 20.133 28.3759C20.5077 28.3395 20.8774 28.4921 21.2267 28.8192C21.2997 28.8876 21.3035 29.0021 21.235 29.0748C21.1664 29.1476 21.052 29.1507 20.9795 29.0832C20.7094 28.8299 20.4372 28.7142 20.1672 28.7357C19.7266 28.7728 19.4195 29.1715 19.4164 29.1754C19.3808 29.2224 19.3266 29.2471 19.2717 29.2471Z" fill="#241726"/>
<path d="M21.042 30.2492C21.0042 30.2492 20.9661 30.2374 20.9336 30.2128C20.8539 30.1528 20.8376 30.0401 20.8973 29.9603C20.9136 29.9387 21.3004 29.4306 21.9033 29.3776C22.2814 29.3465 22.6481 29.4938 22.9972 29.8215C23.0701 29.8896 23.0739 30.0042 23.0054 30.0768C22.9365 30.1496 22.8225 30.1534 22.75 30.0849C22.4798 29.8321 22.2062 29.7117 21.9376 29.7378C21.4968 29.7748 21.1897 30.1735 21.1867 30.1774C21.1509 30.2243 21.0968 30.2492 21.042 30.2492Z" fill="#241726"/>
<path d="M21.7438 28.4483C21.706 28.4483 21.6678 28.4366 21.6353 28.4119C21.5557 28.3519 21.5394 28.2392 21.5991 28.1594C21.6153 28.1378 22.0022 27.6297 22.605 27.5767C22.9844 27.546 23.3497 27.693 23.6989 28.0207C23.7719 28.0888 23.7757 28.2033 23.7072 28.276C23.6385 28.3491 23.5241 28.3525 23.4518 28.2841C23.1816 28.0313 22.9082 27.91 22.6394 27.9369C22.1986 27.9739 21.8914 28.3727 21.8885 28.3766C21.8528 28.4235 21.7988 28.4483 21.7438 28.4483Z" fill="#241726"/>
<path d="M23.5348 29.5952C23.497 29.5952 23.4589 29.5835 23.4264 29.5588C23.3467 29.4988 23.3304 29.3861 23.3901 29.3063C23.4064 29.2847 23.7932 28.7766 24.3962 28.7236C24.7696 28.6911 25.1406 28.8394 25.49 29.1675C25.5629 29.2357 25.5667 29.3502 25.4982 29.4228C25.4295 29.496 25.3151 29.4994 25.2428 29.431C24.9726 29.1777 24.6995 29.0583 24.4304 29.0838C23.9898 29.1208 23.6825 29.5196 23.6795 29.5235C23.6439 29.5703 23.5896 29.5952 23.5348 29.5952Z" fill="#241726"/>
<path d="M24.527 28.2699C24.4894 28.2699 24.4513 28.2581 24.4188 28.2338C24.3389 28.1738 24.3225 28.0606 24.3824 27.9805C24.3986 27.9589 24.7855 27.4508 25.3883 27.3981C25.7652 27.3625 26.1331 27.5147 26.4822 27.8414C26.5552 27.9099 26.5589 28.0244 26.4905 28.0971C26.4222 28.1702 26.3072 28.173 26.235 28.1055C25.9639 27.8513 25.6902 27.7336 25.42 27.7583C24.9764 27.7972 24.6752 28.1935 24.672 28.1974C24.6366 28.2449 24.5822 28.2699 24.527 28.2699Z" fill="#241726"/>
<path d="M18.1451 30.6659C18.1073 30.6659 18.0692 30.6542 18.0367 30.6295C17.957 30.5695 17.9408 30.4569 18.0005 30.377C18.0167 30.3554 18.4036 29.8473 19.0064 29.7944C19.3855 29.7644 19.7511 29.9106 20.1003 30.2383C20.1733 30.3064 20.177 30.4209 20.1086 30.4936C20.04 30.5667 19.9253 30.5698 19.8531 30.5017C19.583 30.2484 19.3091 30.129 19.0408 30.1545C18.6 30.1915 18.2928 30.5903 18.2898 30.5942C18.2542 30.6412 18.2001 30.6659 18.1451 30.6659Z" fill="#241726"/>
<path d="M4.6211 48.9772C4.58329 48.9772 4.54516 48.9655 4.51266 48.9408C4.43298 48.8808 4.41673 48.7681 4.47641 48.6883C4.49266 48.6667 4.87954 48.1586 5.48235 48.1056C5.85657 48.0745 6.22673 48.2214 6.5761 48.5495C6.64907 48.6177 6.65282 48.7322 6.58438 48.8049C6.51579 48.878 6.40141 48.8814 6.32891 48.813C6.0586 48.5597 5.78563 48.4403 5.51657 48.4658C5.07595 48.5028 4.76892 48.9016 4.76579 48.9055C4.73017 48.9525 4.6761 48.9772 4.6211 48.9772Z" fill="#241726"/>
<path d="M6.39149 49.9791C6.35367 49.9791 6.31555 49.9674 6.28305 49.9427C6.20336 49.8827 6.18711 49.77 6.2468 49.6902C6.26305 49.6686 6.64993 49.1605 7.25274 49.1075C7.63227 49.0767 7.99742 49.2238 8.34664 49.5514C8.41961 49.6195 8.42336 49.7341 8.35493 49.8067C8.28633 49.8799 8.17196 49.883 8.09946 49.8149C7.8293 49.562 7.55586 49.4413 7.28711 49.4677C6.84633 49.5047 6.53914 49.9034 6.53618 49.9074C6.50039 49.9542 6.44633 49.9791 6.39149 49.9791Z" fill="#241726"/>
<path d="M7.09321 48.1785C7.05555 48.1785 7.01742 48.1668 6.98492 48.1424C6.90508 48.0824 6.88867 47.9693 6.94852 47.8891C6.96477 47.8675 7.35164 47.3594 7.95461 47.3064C8.33133 47.2725 8.6993 47.4227 9.04836 47.7497C9.12133 47.8182 9.12508 47.9327 9.05664 48.0054C8.98836 48.0785 8.87352 48.0816 8.80117 48.0138C8.53024 47.7599 8.25836 47.643 7.98633 47.6666C7.54273 47.7055 7.24133 48.1018 7.2382 48.106C7.20274 48.1533 7.14836 48.1785 7.09321 48.1785Z" fill="#241726"/>
<path d="M8.88422 49.3253C8.84656 49.3253 8.80844 49.3136 8.77594 49.2892C8.69609 49.2292 8.67969 49.1158 8.73953 49.0359C8.75578 49.0144 9.14281 48.5062 9.74563 48.4533C10.1206 48.4222 10.49 48.5698 10.8394 48.8969C10.9123 48.9653 10.9161 49.0798 10.8477 49.1525C10.7789 49.2259 10.6645 49.2284 10.5922 49.1609C10.3213 48.907 10.0483 48.7897 9.77734 48.8137C9.33375 48.8527 9.03235 49.2489 9.02922 49.2528C8.99375 49.3002 8.93938 49.3253 8.88422 49.3253Z" fill="#241726"/>
<path d="M9.87647 47.9996C9.83866 47.9996 9.80053 47.9879 9.76803 47.9632C9.68835 47.9032 9.6721 47.7906 9.73179 47.7107C9.74804 47.6892 10.1349 47.1811 10.7377 47.1281C11.1177 47.097 11.4824 47.2443 11.8316 47.572C11.9046 47.6401 11.9083 47.7546 11.8399 47.8273C11.7712 47.9004 11.6566 47.9039 11.5844 47.8354C11.3141 47.5826 11.0419 47.4618 10.7721 47.4882C10.3313 47.5253 10.0241 47.924 10.0212 47.9279C9.98538 47.975 9.93147 47.9996 9.87647 47.9996Z" fill="#241726"/>
<path d="M3.49457 50.3959C3.45691 50.3959 3.41879 50.3841 3.38629 50.3598C3.30644 50.2998 3.29004 50.1866 3.34988 50.1065C3.36613 50.0849 3.75301 49.5768 4.35582 49.5241C4.73238 49.4885 5.10067 49.6404 5.44973 49.9674C5.5227 50.036 5.52645 50.1504 5.45801 50.223C5.38973 50.2959 5.27473 50.2993 5.20254 50.2315C4.93145 49.9776 4.65973 49.8602 4.38754 49.8843C3.94395 49.9232 3.6427 50.3194 3.63957 50.3234C3.6041 50.3707 3.54973 50.3959 3.49457 50.3959Z" fill="#241726"/>
<path d="M23.909 62.5479C23.8926 62.5479 23.8759 62.5457 23.859 62.5409C23.7631 62.5134 23.7076 62.4131 23.7353 62.3173C23.7426 62.2912 23.9239 61.6787 24.4687 61.4152C24.809 61.2502 25.206 61.2592 25.6489 61.4421C25.7412 61.4799 25.7853 61.5856 25.7473 61.6781C25.7093 61.7706 25.6039 61.8151 25.5112 61.7762C25.1678 61.6349 24.8698 61.6237 24.6262 61.7409C24.2253 61.9348 24.0842 62.4123 24.0828 62.4168C24.0599 62.4963 23.9878 62.5479 23.909 62.5479Z" fill="#241726"/>
<path d="M25.9198 62.856C25.9032 62.856 25.8864 62.8538 25.8696 62.849C25.7737 62.8215 25.7182 62.7212 25.7459 62.6254C25.7532 62.5993 25.9346 61.9868 26.4795 61.7234C26.8196 61.5584 27.2168 61.5673 27.6595 61.7502C27.7518 61.788 27.7959 61.8937 27.7579 61.9862C27.7199 62.0787 27.6145 62.1235 27.5218 62.0843C27.1787 61.9434 26.8807 61.9318 26.6368 62.049C26.2359 62.2429 26.0948 62.7204 26.0934 62.7249C26.0706 62.8044 25.9984 62.856 25.9198 62.856Z" fill="#241726"/>
<path d="M25.9365 60.9237C25.9201 60.9237 25.9034 60.9215 25.8865 60.9167C25.7905 60.8892 25.7351 60.7889 25.7627 60.6931C25.7701 60.667 25.9513 60.0545 26.4962 59.791C26.8363 59.6265 27.2335 59.6349 27.6763 59.8179C27.7687 59.8557 27.8127 59.9614 27.7748 60.0539C27.7366 60.1467 27.631 60.1912 27.5387 60.152C27.1952 60.0107 26.8973 59.999 26.6537 60.1167C26.2527 60.3106 26.1116 60.7881 26.1102 60.7926C26.0876 60.8721 26.0154 60.9237 25.9365 60.9237Z" fill="#241726"/>
<path d="M28.0179 61.3605C28.0015 61.3605 27.9848 61.3583 27.9679 61.3535C27.872 61.326 27.8165 61.2257 27.8441 61.1299C27.8515 61.1038 28.0329 60.491 28.5777 60.2276C28.9179 60.063 29.3145 60.0715 29.7579 60.2544C29.8502 60.2923 29.8943 60.3979 29.8563 60.4904C29.8184 60.5829 29.7131 60.6274 29.6202 60.5885C29.2771 60.4479 28.9793 60.436 28.7352 60.5532C28.3343 60.7471 28.1931 61.2249 28.1916 61.2294C28.169 61.309 28.0968 61.3605 28.0179 61.3605Z" fill="#241726"/>
<path d="M28.4751 59.7692C28.4586 59.7692 28.4419 59.767 28.425 59.7622C28.3291 59.7347 28.2736 59.6344 28.3013 59.5386C28.3086 59.5125 28.4901 58.8997 29.0349 58.6363C29.3754 58.4717 29.7721 58.4802 30.215 58.6631C30.3074 58.7009 30.3515 58.8066 30.3135 58.8991C30.2754 58.9919 30.1699 59.0369 30.0774 58.9972C29.7335 58.8559 29.4358 58.8447 29.1924 58.9619C28.7915 59.1558 28.6502 59.6336 28.6488 59.6381C28.626 59.7177 28.5538 59.7692 28.4751 59.7692Z" fill="#241726"/>
<path d="M23.3593 64.2734C23.3427 64.2734 23.3257 64.2712 23.309 64.2664C23.2132 64.2384 23.158 64.1389 23.1855 64.0432C23.1929 64.0171 23.3743 63.4046 23.9191 63.1412C24.2594 62.9762 24.6563 62.9854 25.0993 63.1681C25.1916 63.2059 25.2357 63.3115 25.1977 63.404C25.1596 63.4968 25.054 63.5414 24.9616 63.5021C24.6194 63.3612 24.3224 63.3496 24.0788 63.4657C23.6801 63.6571 23.5343 64.1386 23.5329 64.1434C23.5098 64.2221 23.4374 64.2734 23.3593 64.2734Z" fill="#241726"/>
</svg>
